<svg xmlns="http://www.w3.org/2000/svg" viewBox="0 0 1200 1200">
  <defs>
    <linearGradient id="bg" x1="0" y1="0" x2="1" y2="1">
      <stop offset="0%" stop-color="#18120b"/>
      <stop offset="55%" stop-color="#4f330f"/>
      <stop offset="100%" stop-color="#110c08"/>
    </linearGradient>
    <radialGradient id="glow" cx="50%" cy="38%" r="58%">
      <stop offset="0%" stop-color="#ffcc67" stop-opacity="0.44"/>
      <stop offset="100%" stop-color="#ffcc67" stop-opacity="0"/>
    </radialGradient>
  </defs>
  <rect width="1200" height="1200" fill="url(#bg)"/>
  <rect width="1200" height="1200" fill="url(#glow)"/>
  <ellipse cx="600" cy="1010" rx="270" ry="62" fill="#000" opacity="0.28"/>
  <g transform="translate(345 250)">
    <rect x="110" y="225" width="290" height="225" rx="28" fill="#171717" stroke="#545454" stroke-width="8"/>
    <path d="M154 270c58-48 198-54 240 10 18 28 20 64 10 92-26 74-94 126-172 138-34-14-82-44-100-94-20-52-4-110 22-146Z" fill="#f6b347"/>
    <path d="M186 306c44-26 148-36 188 8 24 28 24 72 6 104-20 36-60 70-114 88-36-8-70-28-90-58-34-50-28-116 10-142Z" fill="#ffde88" opacity="0.4"/>
    <rect x="188" y="104" width="136" height="112" rx="24" fill="#fff6d8" opacity="0.92"/>
    <text x="256" y="170" fill="#7f5a0c" font-size="46" font-family="Arial, Helvetica, sans-serif" text-anchor="middle" font-weight="800">WAX</text>
  </g>
</svg>
