<svg xmlns="http://www.w3.org/2000/svg" viewBox="0 0 1200 1200">
  <defs>
    <linearGradient id="bg" x1="0" y1="0" x2="1" y2="1">
      <stop offset="0%" stop-color="#130c0d"/>
      <stop offset="55%" stop-color="#35181d"/>
      <stop offset="100%" stop-color="#0c0909"/>
    </linearGradient>
    <radialGradient id="glow" cx="50%" cy="40%" r="60%">
      <stop offset="0%" stop-color="#ff8ca2" stop-opacity="0.45"/>
      <stop offset="100%" stop-color="#ff8ca2" stop-opacity="0"/>
    </radialGradient>
  </defs>
  <rect width="1200" height="1200" fill="url(#bg)"/>
  <rect width="1200" height="1200" fill="url(#glow)"/>
  <ellipse cx="600" cy="1010" rx="260" ry="64" fill="#000" opacity="0.3"/>
  <g transform="translate(355 260)">
    <rect x="90" y="200" width="310" height="250" rx="32" fill="#11151d" stroke="#505661" stroke-width="8"/>
    <path d="M130 232h230c18 0 32 14 32 32v122H98V264c0-18 14-32 32-32Z" fill="#1c232d"/>
    <path d="M154 292c52-78 146-106 218-78-8 92-100 168-206 180-42-22-74-60-78-110 12-6 40-6 66 8Z" fill="#f5bb7a"/>
    <circle cx="270" cy="322" r="76" fill="#ffd8a1" opacity="0.34"/>
    <rect x="168" y="92" width="152" height="138" rx="26" fill="#fff4df" opacity="0.9"/>
    <text x="244" y="156" fill="#7f4a17" font-size="46" font-family="Arial, Helvetica, sans-serif" text-anchor="middle" font-weight="800">ROSIN</text>
  </g>
</svg>
