<svg xmlns="http://www.w3.org/2000/svg" viewBox="0 0 1200 1200">
  <defs>
    <linearGradient id="bg" x1="0" y1="0" x2="1" y2="1">
      <stop offset="0%" stop-color="#0b1320"/>
      <stop offset="55%" stop-color="#12283f"/>
      <stop offset="100%" stop-color="#071018"/>
    </linearGradient>
    <radialGradient id="glow" cx="50%" cy="35%" r="55%">
      <stop offset="0%" stop-color="#7cf7ff" stop-opacity="0.55"/>
      <stop offset="100%" stop-color="#7cf7ff" stop-opacity="0"/>
    </radialGradient>
    <linearGradient id="can" x1="0" y1="0" x2="1" y2="1">
      <stop offset="0%" stop-color="#f4fbff"/>
      <stop offset="50%" stop-color="#bcecff"/>
      <stop offset="100%" stop-color="#5fd6ff"/>
    </linearGradient>
  </defs>
  <rect width="1200" height="1200" fill="url(#bg)"/>
  <rect width="1200" height="1200" fill="url(#glow)"/>
  <circle cx="930" cy="220" r="150" fill="#8ef3ff" opacity="0.18"/>
  <circle cx="260" cy="300" r="120" fill="#2fe1ff" opacity="0.12"/>
  <ellipse cx="600" cy="1000" rx="260" ry="60" fill="#000" opacity="0.32"/>
  <g transform="translate(455 220)">
    <rect x="65" y="40" width="160" height="660" rx="78" fill="url(#can)"/>
    <rect x="85" y="0" width="120" height="56" rx="24" fill="#d8eff6"/>
    <rect x="98" y="16" width="94" height="18" rx="9" fill="#9bb9c3"/>
    <rect x="92" y="130" width="106" height="240" rx="20" fill="#0c1a27" opacity="0.85"/>
    <text x="145" y="215" fill="#7cf7ff" font-size="44" font-family="Arial, Helvetica, sans-serif" text-anchor="middle" font-weight="700">SPARKLING</text>
    <text x="145" y="270" fill="#ffffff" font-size="56" font-family="Arial, Helvetica, sans-serif" text-anchor="middle" font-weight="800">10MG</text>
    <path d="M145 440c70 0 126 34 126 76s-56 76-126 76-126-34-126-76 56-76 126-76Z" fill="#7cf7ff" opacity="0.18"/>
    <path d="M145 470c36-48 78-56 112-48-10 58-60 98-112 106-46-14-72-56-74-104 20-8 48-6 74 46Z" fill="#b6fff6"/>
  </g>
</svg>
