<svg xmlns="http://www.w3.org/2000/svg" viewBox="0 0 1200 1200">
  <defs>
    <linearGradient id="bg" x1="0" y1="0" x2="1" y2="1">
      <stop offset="0%" stop-color="#25170a"/>
      <stop offset="55%" stop-color="#4a2e0b"/>
      <stop offset="100%" stop-color="#1d1207"/>
    </linearGradient>
    <radialGradient id="glow" cx="50%" cy="35%" r="60%">
      <stop offset="0%" stop-color="#ffd470" stop-opacity="0.48"/>
      <stop offset="100%" stop-color="#ffd470" stop-opacity="0"/>
    </radialGradient>
    <linearGradient id="jar" x1="0" y1="0" x2="1" y2="1">
      <stop offset="0%" stop-color="#ffe5a3"/>
      <stop offset="60%" stop-color="#ffbf3f"/>
      <stop offset="100%" stop-color="#dd8a1e"/>
    </linearGradient>
  </defs>
  <rect width="1200" height="1200" fill="url(#bg)"/>
  <rect width="1200" height="1200" fill="url(#glow)"/>
  <ellipse cx="600" cy="1010" rx="250" ry="60" fill="#000" opacity="0.28"/>
  <g transform="translate(410 230)">
    <rect x="80" y="70" width="220" height="560" rx="46" fill="url(#jar)"/>
    <rect x="110" y="10" width="160" height="90" rx="22" fill="#2a2018"/>
    <rect x="122" y="26" width="136" height="22" rx="11" fill="#56463a"/>
    <rect x="100" y="210" width="180" height="190" rx="18" fill="#fff4d7" opacity="0.92"/>
    <text x="190" y="292" fill="#6b4610" font-size="56" font-family="Arial, Helvetica, sans-serif" text-anchor="middle" font-weight="800">CBD</text>
    <text x="190" y="346" fill="#6b4610" font-size="34" font-family="Arial, Helvetica, sans-serif" text-anchor="middle" font-weight="700">WILDFLOWER HONEY</text>
    <path d="M190 470c34-44 76-70 104-58 24 10 30 40 18 70-12 32-40 54-70 72-34-6-72-20-96-52-18-24-16-58 6-72 22-16 54-2 38 40Z" fill="#fff7b3" opacity="0.72"/>
  </g>
</svg>
