<svg xmlns="http://www.w3.org/2000/svg" viewBox="0 0 1200 1200">
  <defs>
    <linearGradient id="bg" x1="0" y1="0" x2="1" y2="1">
      <stop offset="0%" stop-color="#190f10"/>
      <stop offset="55%" stop-color="#42181f"/>
      <stop offset="100%" stop-color="#130b0b"/>
    </linearGradient>
    <radialGradient id="glow" cx="50%" cy="36%" r="58%">
      <stop offset="0%" stop-color="#ff9ab2" stop-opacity="0.42"/>
      <stop offset="100%" stop-color="#ff9ab2" stop-opacity="0"/>
    </radialGradient>
  </defs>
  <rect width="1200" height="1200" fill="url(#bg)"/>
  <rect width="1200" height="1200" fill="url(#glow)"/>
  <ellipse cx="600" cy="1020" rx="320" ry="54" fill="#000" opacity="0.3"/>
  <g transform="translate(250 310)">
    <g transform="rotate(-12 350 230)">
      <rect x="90" y="210" width="540" height="52" rx="26" fill="#9a5d39"/>
      <polygon points="630,210 720,236 630,262" fill="#d9b16b"/>
      <rect x="68" y="210" width="48" height="52" rx="12" fill="#6c3e25"/>
      <path d="M126 214h470" stroke="#f0d35d" stroke-width="5" stroke-dasharray="6 8"/>
      <path d="M734 216c18-14 30-28 38-44 18 18 18 40 0 62-8 10-20 18-34 22" fill="none" stroke="#d9d9d9" stroke-width="8" stroke-linecap="round"/>
    </g>
    <g transform="rotate(8 350 320)">
      <rect x="120" y="320" width="460" height="48" rx="24" fill="#ab6a41"/>
      <polygon points="580,320 654,344 580,368" fill="#ddb46a"/>
      <path d="M154 324h388" stroke="#f3cf60" stroke-width="4" stroke-dasharray="6 10"/>
    </g>
  </g>
</svg>
