<svg xmlns="http://www.w3.org/2000/svg" viewBox="0 0 1200 1200">
  <defs>
    <linearGradient id="bg" x1="0" y1="0" x2="1" y2="1">
      <stop offset="0%" stop-color="#140f16"/>
      <stop offset="55%" stop-color="#2b1737"/>
      <stop offset="100%" stop-color="#0d0b11"/>
    </linearGradient>
    <radialGradient id="glow" cx="50%" cy="36%" r="58%">
      <stop offset="0%" stop-color="#c392ff" stop-opacity="0.4"/>
      <stop offset="100%" stop-color="#c392ff" stop-opacity="0"/>
    </radialGradient>
  </defs>
  <rect width="1200" height="1200" fill="url(#bg)"/>
  <rect width="1200" height="1200" fill="url(#glow)"/>
  <ellipse cx="600" cy="1010" rx="300" ry="54" fill="#000" opacity="0.3"/>
  <g transform="translate(255 320) rotate(-13 350 230)">
    <rect x="90" y="210" width="520" height="52" rx="26" fill="#efe0bb"/>
    <polygon points="610,210 706,236 610,262" fill="#7f6a44"/>
    <rect x="68" y="210" width="48" height="52" rx="12" fill="#c99056"/>
    <circle cx="634" cy="236" r="52" fill="#55452b"/>
    <circle cx="620" cy="220" r="12" fill="#c9af73"/>
    <circle cx="654" cy="244" r="10" fill="#b29154"/>
    <circle cx="640" cy="258" r="8" fill="#d8c392"/>
    <path d="M730 216c18-14 30-28 38-44 18 18 18 40 0 62-8 10-20 18-34 22" fill="none" stroke="#d9d9d9" stroke-width="8" stroke-linecap="round"/>
  </g>
</svg>
