<svg xmlns="http://www.w3.org/2000/svg" viewBox="0 0 1200 1200">
  <defs>
    <linearGradient id="bg" x1="0" y1="0" x2="1" y2="1">
      <stop offset="0%" stop-color="#0e1118"/>
      <stop offset="55%" stop-color="#243247"/>
      <stop offset="100%" stop-color="#0b0d12"/>
    </linearGradient>
    <radialGradient id="glow" cx="50%" cy="34%" r="58%">
      <stop offset="0%" stop-color="#8db8ff" stop-opacity="0.4"/>
      <stop offset="100%" stop-color="#8db8ff" stop-opacity="0"/>
    </radialGradient>
  </defs>
  <rect width="1200" height="1200" fill="url(#bg)"/>
  <rect width="1200" height="1200" fill="url(#glow)"/>
  <ellipse cx="600" cy="1010" rx="250" ry="54" fill="#000" opacity="0.28"/>
  <g transform="translate(370 260) rotate(-8 250 250)">
    <rect x="90" y="150" width="340" height="340" rx="54" fill="#f8f8f6"/>
    <rect x="130" y="190" width="260" height="260" rx="34" fill="#dde7f7"/>
    <path d="M260 250c76 0 138 62 138 138s-62 138-138 138-138-62-138-138 62-138 138-138Z" fill="#ffffff"/>
    <path d="M260 298c52 0 94 42 94 94s-42 94-94 94-94-42-94-94 42-94 94-94Z" fill="#bfd2f1"/>
    <text x="260" y="396" fill="#49638e" font-size="46" font-family="Arial, Helvetica, sans-serif" text-anchor="middle" font-weight="800">20MG</text>
  </g>
</svg>
