<svg xmlns="http://www.w3.org/2000/svg" viewBox="0 0 1200 1200">
  <defs>
    <linearGradient id="bg" x1="0" y1="0" x2="1" y2="1">
      <stop offset="0%" stop-color="#0d1510"/>
      <stop offset="55%" stop-color="#1f3b2a"/>
      <stop offset="100%" stop-color="#0b110d"/>
    </linearGradient>
    <radialGradient id="glow" cx="50%" cy="35%" r="58%">
      <stop offset="0%" stop-color="#94f3af" stop-opacity="0.38"/>
      <stop offset="100%" stop-color="#94f3af" stop-opacity="0"/>
    </radialGradient>
  </defs>
  <rect width="1200" height="1200" fill="url(#bg)"/>
  <rect width="1200" height="1200" fill="url(#glow)"/>
  <ellipse cx="600" cy="1010" rx="250" ry="54" fill="#000" opacity="0.28"/>
  <g transform="translate(400 240)">
    <rect x="78" y="280" width="244" height="260" rx="34" fill="#eef7ef"/>
    <rect x="90" y="150" width="220" height="150" rx="28" fill="#2a3131"/>
    <rect x="122" y="356" width="156" height="112" rx="18" fill="#d6f6dc"/>
    <text x="200" y="420" fill="#2f6e45" font-size="46" font-family="Arial, Helvetica, sans-serif" text-anchor="middle" font-weight="800">SALVE</text>
    <path d="M200 510c50-74 118-84 160-54-14 72-82 134-160 156-50-18-90-60-98-110 10-6 42-8 98 8Z" fill="#7ed79a" opacity="0.48"/>
  </g>
</svg>
